<?xml version="1.0"?>
<svg width="32" height="32" xmlns="http://www.w3.org/2000/svg" xmlns:svg="http://www.w3.org/2000/svg" version="1.1">

 <metadata id="metadata90">image/svg+xmlGnome Symbolic Icon Theme</metadata>
 <title id="title9167">Gnome Symbolic Icon Theme</title>
 <g class="layer">
  <title>Layer 1</title>
  <path d="m31.22,16.01a14.98,14.98 0 1 1 -29.95,0a14.98,14.98 0 1 1 29.95,0z" fill="#d3d7cf" id="path3039" stroke="#46443f" stroke-miterlimit="4" stroke-width="2"/>
  <text fill="#000000" font-family="Sans" font-size="40px" font-style="normal" font-weight="normal" id="text4369" letter-spacing="0px" word-spacing="0px" x="-5.8" xml:space="preserve" y="10.39"/>
  <rect fill="#ff7f00" height="3.56" id="svg_1" stroke="#46443f" width="19.92" x="6.42" y="20.65"/>
  <path d="m13.62,6.56c0,0 -0.3,7.35 -0.3,7.35c0,0 -3.71,-0.08 -3.77,-0.12c-0.06,-0.05 6.95,4.59 6.89,4.55c-0.06,-0.05 5.36,-4.12 5.3,-4.17c-0.06,-0.05 -4.71,-0.26 -4.77,-0.3c-0.06,-0.05 -0.09,-7.76 -0.15,-7.8c-0.06,-0.05 -3.2,0.5 -3.2,0.5z" fill="#ff7f00" id="svg_7" stroke="#46443f" transform="matrix(1 0 0 1 0 0)"/>
  <circle cx="8.32" cy="22.39" fill="#d3d7cf" id="svg_9" r="0.34" stroke="#46443f" transform="matrix(1 0 0 1 0 0)"/>
  <line fill="none" id="svg_10" stroke="#46443f" transform="matrix(1 0 0 1 0 0)" x1="10.52" x2="24.68" y1="22.47" y2="22.39"/>
 </g>
</svg>