<?xml version="1.0" encoding="UTF-8" standalone="no"?>
<!-- Created with Inkscape (http://www.inkscape.org/) -->

<svg
   xmlns:dc="http://purl.org/dc/elements/1.1/"
   xmlns:cc="http://creativecommons.org/ns#"
   xmlns:rdf="http://www.w3.org/1999/02/22-rdf-syntax-ns#"
   xmlns:svg="http://www.w3.org/2000/svg"
   xmlns="http://www.w3.org/2000/svg"
   xmlns:sodipodi="http://sodipodi.sourceforge.net/DTD/sodipodi-0.dtd"
   xmlns:inkscape="http://www.inkscape.org/namespaces/inkscape"
   id="svg7384"
   height="32"
   width="32"
   version="1.1"
   inkscape:version="0.48.2 r9819"
   sodipodi:docname="save.svg">
  <defs
     id="defs3041" />
  <sodipodi:namedview
     pagecolor="#ffffff"
     bordercolor="#666666"
     borderopacity="1"
     objecttolerance="10"
     gridtolerance="10"
     guidetolerance="10"
     inkscape:pageopacity="0"
     inkscape:pageshadow="2"
     inkscape:window-width="1550"
     inkscape:window-height="876"
     id="namedview3039"
     showgrid="false"
     inkscape:zoom="14.203125"
     inkscape:cx="8.0922124"
     inkscape:cy="9.0411808"
     inkscape:window-x="50"
     inkscape:window-y="24"
     inkscape:window-maximized="1"
     inkscape:current-layer="svg7384"
     fit-margin-top="0"
     fit-margin-left="0"
     fit-margin-right="0"
     fit-margin-bottom="0" />
  <metadata
     id="metadata90">
    <rdf:RDF>
      <cc:Work
         rdf:about="">
        <dc:format>image/svg+xml</dc:format>
        <dc:type
           rdf:resource="http://purl.org/dc/dcmitype/StillImage" />
        <dc:title>Gnome Symbolic Icon Theme</dc:title>
      </cc:Work>
    </rdf:RDF>
  </metadata>
  <title
     id="title9167">Gnome Symbolic Icon Theme</title>
  <path
     sodipodi:type="arc"
     style="fill:#d3d7cf;stroke:#46443f;stroke-width:2;stroke-miterlimit:4;stroke-dasharray:none;stroke-opacity:1"
     id="path3039"
     sodipodi:cx="9.2219019"
     sodipodi:cy="12.172911"
     sodipodi:rx="14.616715"
     sodipodi:ry="14.616715"
     d="m 23.838617,12.172911 a 14.616715,14.616715 0 1 1 -29.2334305,0 14.616715,14.616715 0 1 1 29.2334305,0 z"
     transform="matrix(1.0245432,0,0,1.0245432,6.5634799,3.5369086)" />
  <text
     xml:space="preserve"
     style="font-size:40px;font-style:normal;font-weight:normal;line-height:125%;letter-spacing:0px;word-spacing:0px;fill:#000000;fill-opacity:1;stroke:none;font-family:Sans"
     x="-5.7984958"
     y="10.391544"
     id="text4369"
     sodipodi:linespacing="125%"><tspan
       sodipodi:role="line"
       id="tspan4371"
       x="-5.7984958"
       y="10.391544" /></text>
  <g
     id="g3292"
     transform="matrix(1.3470061,0,0,1.3470061,36.307206,-4.1446503)">
    <rect
       y="18.552254"
       x="-18.798679"
       height="3.0979097"
       width="7.1815181"
       id="rect3290"
       style="fill:#ef7645;fill-opacity:1;stroke:#46443f;stroke-width:0.30000001;stroke-linecap:round;stroke-linejoin:round;stroke-miterlimit:4;stroke-opacity:0;stroke-dasharray:none" />
    <g
       style="fill:#46443f;fill-opacity:1"
       id="layer12"
       transform="translate(-103.06686,-641.0385)">
      <path
         inkscape:connector-curvature="0"
         id="rect4390-9"
         style="text-indent:0;text-transform:none;block-progression:tb;color:#bebebe;fill:#46443f;fill-opacity:1"
         d="m 84.406,657 a 0.50005,0.50005 0 0 0 -0.3125,0.21875 l -1,1.5 a 0.50005,0.50005 0 1 0 0.8125,0.5625 l 1,-1.5 a 0.50005,0.50005 0 0 0 -0.5,-0.78 z m 7,0 a 0.50005,0.50005 0 0 0 -0.3125,0.78125 l 1,1.5 a 0.50005,0.50005 0 1 0 0.8125,-0.5625 l -1,-1.5 a 0.50005,0.50005 0 0 0 -0.5,-0.22 z" />
      <g
         style="fill:#46443f;fill-opacity:1"
         id="g4555"
         transform="translate(-80,110)">
        <path
           inkscape:connector-curvature="0"
           id="path3613"
           style="text-indent:0;text-transform:none;block-progression:tb;color:#000000;fill:#46443f;fill-opacity:1"
           d="m 167,539 v 5.5625 l -1.2812,-1.2812 c -0.19,-0.19 -0.45,-0.28 -0.72,-0.28 h -1 v 1 c 1e-5,0.2653 0.0931,0.53058 0.28125,0.71875 l 3,3 0.28125,0.28125 h 0.875 l 0.28125,-0.28125 3,-3 c 0.19,-0.19 0.28,-0.45 0.28,-0.72 v -1 h -1 c -0.2653,10e-6 -0.53059,0.0931 -0.71875,0.28125 l -1.28,1.28 v -5.56 z" />
        <path
           inkscape:connector-curvature="0"
           id="rect11668-7-5"
           style="color:#000000;fill:#46443f;fill-opacity:1;fill-rule:evenodd"
           d="m 163,549 v 4 h 10 v -4 z m 3.3438,1.4375 c 0.0208,-10e-4 0.0417,-10e-4 0.0625,0 0.29096,-0.0556 0.59898,0.20383 0.59375,0.5 V 551 h 2 v -0.0625 c -0.004,-0.26416 0.23582,-0.50712 0.5,-0.50712 0.26418,0 0.50373,0.24296 0.5,0.50712 v 0.06 c 0,0.54535 -0.45465,1 -1,1 h -2 c -0.54535,0 -1,-0.45465 -1,-1 v -0.0625 c -0.0108,-0.21706 0.13723,-0.43234 0.34375,-0.5 z" />
      </g>
    </g>
  </g>
</svg>
